<svg xmlns="http://www.w3.org/2000/svg" xmlns:xlink="http://www.w3.org/1999/xlink" width="1920" height="1080" viewBox="0 0 1920 1080">
  <defs>
    <clipPath id="clip-Login">
      <rect width="1920" height="1080"/>
    </clipPath>
  </defs>
  <g id="Login" clip-path="url(#clip-Login)">
    <rect width="1920" height="1080" fill="#f2f2f2"/>
    <path id="Tracciato_174" data-name="Tracciato 174" d="M17832.736,2283.249s455.58,1698.795,2540.031,935.511-875.57,1711.765-875.57,1711.765l-2383.859-635.7Z" transform="translate(-17744 -2872.387)" fill="#001f3f" opacity="0.5"/>
    <path id="Tracciato_173" data-name="Tracciato 173" d="M17832.736,2283.249s455.58,1698.795,2540.031,935.511-875.57,1711.765-875.57,1711.765l-2383.859-635.7Z" transform="translate(-17927 -2626.387)" fill="#001f3f" opacity="0.75"/>
    <path id="Tracciato_172" data-name="Tracciato 172" d="M17832.736,2283.249s455.58,1698.795,2540.031,935.511-875.57,1711.765-875.57,1711.765l-2383.859-635.7Z" transform="translate(-18089 -2462)" fill="#001f3f"/>
    <text id="_make_IT_easier_and_simple_" data-name="&lt; make IT easier and simple /&gt;" transform="translate(60 990)" fill="#fff" font-size="26" font-family="SFMono-MediumItalic, SF Mono" font-weight="500" font-style="italic"><tspan x="0" y="0">&lt; make IT easier and simple /&gt;</tspan></text>
    <text id="Spotex_Srl" data-name="Spotex Srl" transform="translate(164 950)" fill="#fff" font-size="54" font-family="SFMono-Semibold, SF Mono" font-weight="600"><tspan x="0" y="0">Spotex Srl</tspan></text>
    <g id="daconvertire_1_" data-name="daconvertire (1)" transform="translate(84.752 897.917)">
      <path id="Tracciato_162" data-name="Tracciato 162" d="M83.5,50.281,86.136,52.9c-2.079,1.753-4.087,3.43-6.077,5.127Q67.8,68.479,55.555,78.945c-.129.111-.312.21-.363.352-.139.389-.376.847-.272,1.184.074.24.637.464.983.465,4.4.02,8.8,0,13.206-.013.543,0,1.087,0,1.778,0L60.2,99.308c-.314-.294-.559-.512-.791-.744q-8.581-8.577-17.158-17.156c-3.144-3.146-3.15-6.939-.011-10.079q12.991-13,25.988-25.991c3.311-3.309,6.991-3.317,10.3-.028C80.165,46.946,81.8,48.59,83.5,50.281Z" transform="translate(-39.886 -42.849)" fill="#fff"/>
      <path id="Tracciato_163" data-name="Tracciato 163" d="M176.894,117.322a4.615,4.615,0,0,0-1.486-.4c-4.367,0-8.734.034-13.1.058-.291,0-.582,0-1.022,0l11.431-18.845c.282.267.53.492.767.728q8.255,8.25,16.507,16.5c3.039,3.042,3.034,6.877-.018,9.931q-13.134,13.145-26.277,26.28c-2.995,2.994-6.854,2.992-9.862,0-2.174-2.16-4.343-4.324-6.591-6.562.967-.837,1.867-1.6,2.752-2.385q12.711-11.252,25.415-22.512a5.055,5.055,0,0,0,1.14-1.163A4.7,4.7,0,0,0,176.894,117.322Z" transform="translate(-125.26 -86.814)" fill="#fff"/>
    </g>
  </g>
</svg>
